<svg width="1327.90625px" height="266px" xmlns="http://www.w3.org/2000/svg" viewBox="-413.953125 -58 1327.90625 266" style="background: none;" preserveAspectRatio="xMidYMid"><defs><linearGradient id="editing-sticker-gradient" x1="0.6026060429977006" y1="0.2180922137642275" x2="0.3973939570022994" y2="0.7819077862357725"><stop offset="0" stop-color="#ffd4cb"></stop><stop offset="1" stop-color="#3a5c1d"></stop></linearGradient><filter id="editing-sticker" x="-100%" y="-100%" width="300%" height="300%"><feMorphology operator="erode" radius="1" in="SourceAlpha" result="alpha-erode"></feMorphology><feConvolveMatrix order="3,3" divisor="1" kernelMatrix="0 1 0 1 1 1 0 1 0" in="alpha-erode" result="alpha-round"></feConvolveMatrix><feMorphology operator="dilate" radius="3.5" in="alpha-round" result="dilate-shadow"></feMorphology><feGaussianBlur in="dilate-shadow" stdDeviation="1.5" result="shadow"></feGaussianBlur><feFlood flood-color="#fff" result="flood-sticker"></feFlood><feComposite operator="in" in="flood-sticker" in2="alpha-round" result="comp-sticker"></feComposite><feMorphology operator="dilate" radius="3" in="comp-sticker" result="morph-sticker"></feMorphology><feConvolveMatrix order="3,3" divisor="1" kernelMatrix="0 1 0 1 1 1 0 1 0" in="morph-sticker" result="sticker"></feConvolveMatrix><feMerge><feMergeNode in="shadow"></feMergeNode><feMergeNode in="sticker"></feMergeNode><feMergeNode in="SourceGraphic"></feMergeNode></feMerge></filter></defs><g filter="url(#editing-sticker)"><g transform="translate(-232.3749725818634, 106.205002784729)"><path d="M17.47 8.45L17.47 8.45L6.46 8.45L6.46 8.45Q4.76 8.45 3.98 7.67L3.98 7.67L3.98 7.67Q3.20 6.89 3.20 5.18L3.20 5.18L3.20-40.83L3.20-40.83Q3.20-41.75 3.44-42.39L3.44-42.39L3.44-42.39Q3.69-43.03 4.19-43.45L4.19-43.45L13.35-51.19L13.35-51.19Q13.70-51.48 14.31-51.65L14.31-51.65L14.31-51.65Q14.91-51.83 15.62-51.83L15.62-51.83L47.29-51.83L47.29-51.83Q48.99-51.83 49.77-51.05L49.77-51.05L49.77-51.05Q50.55-50.27 50.55-48.56L50.55-48.56L50.55-40.12L50.55-40.12Q50.55-39.19 50.30-38.55L50.30-38.55L50.30-38.55Q50.06-37.91 49.56-37.49L49.56-37.49L41.61-30.89L41.61-30.89Q43.24-30.89 44.02-30.10L44.02-30.10L44.02-30.10Q44.80-29.32 44.80-27.62L44.80-27.62L44.80-19.10L44.80-19.10Q44.80-18.18 44.55-17.54L44.55-17.54L44.55-17.54Q44.30-16.90 43.81-16.47L43.81-16.47L34.58-8.80L34.58-8.80Q34.29-8.52 33.69-8.31L33.69-8.31L33.69-8.31Q33.09-8.09 32.38-8.09L32.38-8.09L29.89-8.09L29.89-2.56L29.89-2.56Q29.89-1.63 29.64-0.99L29.64-0.99L29.64-0.99Q29.39-0.36 28.90 0.07L28.90 0.07L19.67 7.74L19.67 7.74Q19.38 8.02 18.78 8.24L18.78 8.24L18.78 8.24Q18.18 8.45 17.47 8.45ZM15.62 0L26.63 0L26.63 0Q27.97 0 28.58-0.60L28.58-0.60L28.58-0.60Q29.18-1.21 29.18-2.56L29.18-2.56L29.18-16.54L41.54-16.54L41.54-16.54Q42.88-16.54 43.49-17.15L43.49-17.15L43.49-17.15Q44.09-17.75 44.09-19.10L44.09-19.10L44.09-27.62L44.09-27.62Q44.09-28.97 43.49-29.57L43.49-29.57L43.49-29.57Q42.88-30.18 41.54-30.18L41.54-30.18L29.18-30.18L29.18-37.56L47.29-37.56L47.29-37.56Q48.64-37.56 49.24-38.16L49.24-38.16L49.24-38.16Q49.84-38.77 49.84-40.12L49.84-40.12L49.84-48.56L49.84-48.56Q49.84-49.91 49.24-50.52L49.24-50.52L49.24-50.52Q48.64-51.12 47.29-51.12L47.29-51.12L15.62-51.12L15.62-51.12Q14.27-51.12 13.67-50.52L13.67-50.52L13.67-50.52Q13.06-49.91 13.06-48.56L13.06-48.56L13.06-2.56L13.06-2.56Q13.06-1.21 13.67-0.60L13.67-0.60L13.67-0.60Q14.27 0 15.62 0L15.62 0ZM21.51-6.39L20.80-6.39L20.80-44.73L43.45-44.73L43.45-44.02L21.51-44.02L21.51-23.71L37.70-23.71L37.70-23.00L21.51-23.00L21.51-6.39ZM87.90-44.02L87.90-44.02L72.42-44.02L72.42-23.50L87.90-23.50L87.90-23.50Q92.30-23.50 93.79-25.63L93.79-25.63L93.79-25.63Q95.28-27.76 95.28-31.67L95.28-31.67L95.28-36.64L95.28-36.64Q95.28-39.90 93.47-41.96L93.47-41.96L93.47-41.96Q91.66-44.02 87.90-44.02ZM80.09-29.25L80.09-38.34L85.41-38.34L85.41-38.34Q87.26-38.34 87.90-37.38L87.90-37.38L87.90-37.38Q88.54-36.42 88.54-35.00L88.54-35.00L88.54-32.59L88.54-32.59Q88.54-31.17 87.90-30.21L87.90-30.21L87.90-30.21Q87.26-29.25 85.41-29.25L85.41-29.25L80.09-29.25ZM72.42-22.86L72.42-6.39L71.71-6.39L71.71-44.73L87.90-44.73L87.90-44.73Q92.02-44.73 94.00-42.42L94.00-42.42L94.00-42.42Q95.99-40.12 95.99-36.64L95.99-36.64L95.99-31.74L95.99-31.74Q95.99-28.47 95.14-26.38L95.14-26.38L95.14-26.38Q94.29-24.28 91.73-23.50L91.73-23.50L92.51-23.50L92.51-23.50Q96.84-23.50 98.97-21.55L98.97-21.55L98.97-21.55Q101.10-19.60 101.10-15.90L101.10-15.90L101.10-6.39L100.39-6.39L100.39-15.90L100.39-15.90Q100.39-19.38 98.48-21.12L98.48-21.12L98.48-21.12Q96.56-22.86 92.51-22.86L92.51-22.86L72.42-22.86ZM66.60 0L77.53 0L77.53 0Q78.88 0 79.48-0.60L79.48-0.60L79.48-0.60Q80.09-1.21 80.09-2.56L80.09-2.56L80.09-16.47L90.03-16.47L90.03-16.47Q91.52-16.47 92.12-15.73L92.12-15.73L92.12-15.73Q92.73-14.98 92.73-13.42L92.73-13.42L92.73-2.56L92.73-2.56Q92.73-1.21 93.33-0.60L93.33-0.60L93.33-0.60Q93.93 0 95.28 0L95.28 0L106.29 0L106.29 0Q107.64 0 108.24-0.60L108.24-0.60L108.24-0.60Q108.84-1.21 108.84-2.56L108.84-2.56L108.84-17.61L108.84-17.61Q108.84-22.08 106.46-24.78L106.46-24.78L106.46-24.78Q104.09-27.48 100.25-27.90L100.25-27.90L100.25-27.90Q102.45-28.83 103.34-30.92L103.34-30.92L103.34-30.92Q104.23-33.02 104.23-36.00L104.23-36.00L104.23-39.26L104.23-39.26Q104.23-44.52 101.21-47.82L101.21-47.82L101.21-47.82Q98.19-51.12 90.24-51.12L90.24-51.12L66.60-51.12L66.60-51.12Q65.25-51.12 64.65-50.52L64.65-50.52L64.65-50.52Q64.04-49.91 64.04-48.56L64.04-48.56L64.04-2.56L64.04-2.56Q64.04-1.21 64.65-0.60L64.65-0.60L64.65-0.60Q65.25 0 66.60 0L66.60 0ZM79.80 0.07L79.80 0.07L70.57 7.74L70.57 7.74Q70.29 8.02 69.69 8.24L69.69 8.24L69.69 8.24Q69.08 8.45 68.37 8.45L68.37 8.45L57.44 8.45L57.44 8.45Q55.74 8.45 54.95 7.67L54.95 7.67L54.95 7.67Q54.17 6.89 54.17 5.18L54.17 5.18L54.17-40.83L54.17-40.83Q54.17-41.75 54.42-42.39L54.42-42.39L54.42-42.39Q54.67-43.03 55.17-43.45L55.17-43.45L64.33-51.19L64.33-51.19Q64.68-51.48 65.28-51.65L65.28-51.65L65.28-51.65Q65.89-51.83 66.60-51.83L66.60-51.83L90.24-51.83L90.24-51.83Q98.69-51.83 101.81-48.32L101.81-48.32L101.81-48.32Q104.94-44.80 104.94-39.26L104.94-39.26L104.94-36.00L104.94-36.00Q104.94-33.37 104.30-31.42L104.30-31.42L104.30-31.42Q103.66-29.47 102.24-28.26L102.24-28.26L102.17-28.26L102.17-28.26Q105.51-27.34 107.53-24.57L107.53-24.57L107.53-24.57Q109.55-21.80 109.55-17.61L109.55-17.61L109.55-2.56L109.55-2.56Q109.55-1.63 109.30-0.99L109.30-0.99L109.30-0.99Q109.06-0.36 108.56 0.07L108.56 0.07L99.33 7.74L99.33 7.74Q99.05 8.02 98.44 8.24L98.44 8.24L98.44 8.24Q97.84 8.45 97.13 8.45L97.13 8.45L86.12 8.45L86.12 8.45Q84.42 8.45 83.64 7.67L83.64 7.67L83.64 7.67Q82.86 6.89 82.86 5.18L82.86 5.18L82.86-5.68L82.86-5.68Q82.86-6.82 82.43-7.42L82.43-7.42L82.43-7.42Q82.01-8.02 80.87-8.02L80.87-8.02L80.80-8.02L80.80-2.56L80.80-2.56Q80.80-1.63 80.55-0.99L80.55-0.99L80.55-0.99Q80.30-0.36 79.80 0.07ZM163.66-2.63L154.50 5.04L154.50 5.04Q152.01 7.17 147.54 8.34L147.54 8.34L147.54 8.34Q143.07 9.51 136.04 9.51L136.04 9.51L136.04 9.51Q129.08 9.51 124.64 8.06L124.64 8.06L124.64 8.06Q120.20 6.60 117.68 4.19L117.68 4.19L117.68 4.19Q115.16 1.78 114.20-1.35L114.20-1.35L114.20-1.35Q113.25-4.47 113.25-7.81L113.25-7.81L113.25-29.89L113.25-29.89Q113.25-33.16 114.17-35.96L114.17-35.96L114.17-35.96Q115.09-38.77 117.51-40.75L117.51-40.75L126.74-48.42L126.74-48.42Q129.22-50.55 133.66-51.72L133.66-51.72L133.66-51.72Q138.10-52.90 145.20-52.90L145.20-52.90L145.20-52.90Q152.15-52.90 156.59-51.76L156.59-51.76L156.59-51.76Q161.03-50.62 163.55-48.60L163.55-48.60L163.55-48.60Q166.07-46.58 166.99-43.77L166.99-43.77L166.99-43.77Q167.92-40.97 167.92-37.63L167.92-37.63L167.92-13.42L167.92-13.42Q167.92-10.15 166.99-7.38L166.99-7.38L166.99-7.38Q166.07-4.62 163.66-2.63L163.66-2.63ZM167.21-13.42L167.21-13.42L167.21-37.63L167.21-37.63Q167.21-40.90 166.25-43.56L166.25-43.56L166.25-43.56Q165.29-46.22 162.84-48.14L162.84-48.14L162.84-48.14Q160.39-50.06 156.09-51.12L156.09-51.12L156.09-51.12Q151.80-52.19 145.20-52.19L145.20-52.19L145.20-52.19Q138.59-52.19 134.26-51.12L134.26-51.12L134.26-51.12Q129.93-50.06 127.48-48.14L127.48-48.14L127.48-48.14Q125.03-46.22 124.07-43.56L124.07-43.56L124.07-43.56Q123.11-40.90 123.11-37.63L123.11-37.63L123.11-13.42L123.11-13.42Q123.11-10.15 124.07-7.49L124.07-7.49L124.07-7.49Q125.03-4.83 127.48-2.95L127.48-2.95L127.48-2.95Q129.93-1.07 134.26 0L134.26 0L134.26 0Q138.59 1.07 145.20 1.07L145.20 1.07L145.20 1.07Q151.80 1.07 156.09 0L156.09 0L156.09 0Q160.39-1.07 162.84-2.95L162.84-2.95L162.84-2.95Q165.29-4.83 166.25-7.49L166.25-7.49L166.25-7.49Q167.21-10.15 167.21-13.42ZM159.47-36.00L159.47-15.05L159.47-15.05Q159.47-10.79 156.41-8.13L156.41-8.13L156.41-8.13Q153.36-5.47 145.05-5.47L145.05-5.47L145.05-5.47Q136.75-5.47 133.76-8.13L133.76-8.13L133.76-8.13Q130.78-10.79 130.78-15.05L130.78-15.05L130.78-36.00L130.78-36.00Q130.78-40.26 133.76-42.92L133.76-42.92L133.76-42.92Q136.75-45.58 145.05-45.58L145.05-45.58L145.05-45.58Q153.36-45.58 156.41-42.92L156.41-42.92L156.41-42.92Q159.47-40.26 159.47-36.00L159.47-36.00ZM131.49-36.00L131.49-15.05L131.49-15.05Q131.49-11.08 134.33-8.63L134.33-8.63L134.33-8.63Q137.17-6.18 145.05-6.18L145.05-6.18L145.05-6.18Q152.93-6.18 155.85-8.63L155.85-8.63L155.85-8.63Q158.76-11.08 158.76-15.05L158.76-15.05L158.76-36.00L158.76-36.00Q158.76-39.97 155.85-42.42L155.85-42.42L155.85-42.42Q152.93-44.87 145.05-44.87L145.05-44.87L145.05-44.87Q137.17-44.87 134.33-42.42L134.33-42.42L134.33-42.42Q131.49-39.97 131.49-36.00L131.49-36.00ZM139.23-15.98L139.23-15.98L139.23-35.07L139.23-35.07Q139.23-36.42 140.30-37.38L140.30-37.38L140.30-37.38Q141.36-38.34 145.20-38.34L145.20-38.34L145.20-38.34Q149.03-38.34 150.09-37.38L150.09-37.38L150.09-37.38Q151.16-36.42 151.16-35.07L151.16-35.07L151.16-15.98L151.16-15.98Q151.16-14.56 150.09-13.60L150.09-13.60L150.09-13.60Q149.03-12.64 145.20-12.64L145.20-12.64L145.20-12.64Q141.36-12.64 140.30-13.60L140.30-13.60L140.30-13.60Q139.23-14.56 139.23-15.98ZM139.94-29.39L139.94-15.98L139.94-15.98Q139.94-15.27 140.23-14.73L140.23-14.73L140.23-14.73Q140.51-14.20 141.29-13.85L141.29-13.85L141.29-27.34L141.29-27.34Q141.29-28.05 141.01-28.58L141.01-28.58L141.01-28.58Q140.72-29.11 139.94-29.39L139.94-29.39ZM208.31-27.34L208.31-27.34L208.31-27.34Q209.59-27.34 210.16-27.90L210.16-27.90L210.16-27.90Q210.73-28.47 211.94-30.32L211.94-30.32L220.60-43.52L220.60-43.52Q221.02-44.23 221.56-44.48L221.56-44.48L221.56-44.48Q222.09-44.73 222.66-44.73L222.66-44.73L223.86-44.73L223.86-44.73Q224.86-44.73 225.32-44.20L225.32-44.20L225.32-44.20Q225.78-43.67 225.78-42.53L225.78-42.53L225.78-6.39L225.07-6.39L225.07-42.53L225.07-42.53Q225.07-43.10 224.82-43.56L224.82-43.56L224.82-43.56Q224.57-44.02 223.86-44.02L223.86-44.02L222.80-44.02L222.80-44.02Q222.30-44.02 221.95-43.88L221.95-43.88L221.95-43.88Q221.59-43.74 221.17-43.03L221.17-43.03L212.50-29.96L212.50-29.96Q211.23-28.05 210.55-27.34L210.55-27.34L210.55-27.34Q209.88-26.63 208.31-26.63L208.31-26.63L208.31-26.63Q206.75-26.63 206.08-27.34L206.08-27.34L206.08-27.34Q205.40-28.05 204.13-29.96L204.13-29.96L195.46-43.03L195.46-43.03Q195.04-43.74 194.65-43.88L194.65-43.88L194.65-43.88Q194.26-44.02 193.76-44.02L193.76-44.02L192.69-44.02L192.69-44.02Q191.98-44.02 191.77-43.56L191.77-43.56L191.77-43.56Q191.56-43.10 191.56-42.53L191.56-42.53L191.56-6.39L190.85-6.39L190.85-42.53L190.85-42.53Q190.85-43.67 191.31-44.20L191.31-44.20L191.31-44.20Q191.77-44.73 192.69-44.73L192.69-44.73L193.90-44.73L193.90-44.73Q194.47-44.73 195.04-44.48L195.04-44.48L195.04-44.48Q195.61-44.23 196.03-43.52L196.03-43.52L204.69-30.32L204.69-30.32Q205.90-28.47 206.47-27.90L206.47-27.90L206.47-27.90Q207.04-27.34 208.31-27.34ZM185.88 0L196.46 0L196.46 0Q197.81 0 198.41-0.60L198.41-0.60L198.41-0.60Q199.01-1.21 199.01-2.56L199.01-2.56L199.01-27.55L203.20-19.81L203.20-19.81Q203.84-18.60 204.73-18.07L204.73-18.07L204.73-18.07Q205.62-17.54 206.97-17.54L206.97-17.54L209.81-17.54L209.81-17.54Q211.15-17.54 212.04-18.07L212.04-18.07L212.04-18.07Q212.93-18.60 213.57-19.81L213.57-19.81L217.76-27.55L217.76-2.56L217.76-2.56Q217.76-1.21 218.36-0.60L218.36-0.60L218.36-0.60Q218.96 0 220.31 0L220.31 0L231.25 0L231.25 0Q232.60 0 233.20-0.60L233.20-0.60L233.20-0.60Q233.80-1.21 233.80-2.56L233.80-2.56L233.80-48.56L233.80-48.56Q233.80-49.91 233.20-50.52L233.20-50.52L233.20-50.52Q232.60-51.12 231.25-51.12L231.25-51.12L219.75-51.12L219.75-51.12Q218.61-51.12 217.86-50.62L217.86-50.62L217.86-50.62Q217.12-50.13 216.48-48.99L216.48-48.99L210.16-37.42L210.16-37.42Q209.81-36.78 209.56-36.49L209.56-36.49L209.56-36.49Q209.31-36.21 208.88-36.21L208.88-36.21L208.24-36.21L208.24-36.21Q207.82-36.21 207.57-36.49L207.57-36.49L207.57-36.49Q207.32-36.78 206.97-37.42L206.97-37.42L200.58-48.99L200.58-48.99Q199.94-50.13 199.19-50.62L199.19-50.62L199.19-50.62Q198.45-51.12 197.31-51.12L197.31-51.12L185.88-51.12L185.88-51.12Q184.53-51.12 183.93-50.52L183.93-50.52L183.93-50.52Q183.32-49.91 183.32-48.56L183.32-48.56L183.32-2.56L183.32-2.56Q183.32-1.21 183.93-0.60L183.93-0.60L183.93-0.60Q184.53 0 185.88 0L185.88 0ZM198.73 0.07L198.73 0.07L189.50 7.74L189.50 7.74Q189.22 8.02 188.61 8.24L188.61 8.24L188.61 8.24Q188.01 8.45 187.30 8.45L187.30 8.45L176.72 8.45L176.72 8.45Q175.02 8.45 174.23 7.67L174.23 7.67L174.23 7.67Q173.45 6.89 173.45 5.18L173.45 5.18L173.45-40.83L173.45-40.83Q173.45-41.75 173.70-42.39L173.70-42.39L173.70-42.39Q173.95-43.03 174.45-43.45L174.45-43.45L183.61-51.19L183.61-51.19Q183.96-51.48 184.56-51.65L184.56-51.65L184.56-51.65Q185.17-51.83 185.88-51.83L185.88-51.83L197.31-51.83L197.31-51.83Q198.66-51.83 199.55-51.26L199.55-51.26L199.55-51.26Q200.43-50.69 201.21-49.35L201.21-49.35L206.04-40.47L206.68-41.61L206.68-41.61Q206.97-42.10 207.28-42.56L207.28-42.56L207.28-42.56Q207.60-43.03 207.96-43.31L207.96-43.31L217.12-50.98L217.12-50.98Q217.69-51.40 218.29-51.62L218.29-51.62L218.29-51.62Q218.89-51.83 219.75-51.83L219.75-51.83L231.25-51.83L231.25-51.83Q232.95-51.83 233.73-51.05L233.73-51.05L233.73-51.05Q234.51-50.27 234.51-48.56L234.51-48.56L234.51-2.56L234.51-2.56Q234.51-1.63 234.26-0.99L234.26-0.99L234.26-0.99Q234.02-0.36 233.52 0.07L233.52 0.07L224.29 7.74L224.29 7.74Q224.01 8.02 223.40 8.24L223.40 8.24L223.40 8.24Q222.80 8.45 222.09 8.45L222.09 8.45L211.15 8.45L211.15 8.45Q209.38 8.45 208.63 7.67L208.63 7.67L208.63 7.67Q207.89 6.89 207.89 5.18L207.89 5.18L207.89-13.56L203.70-10.08L203.70-10.08Q203.13-9.59 202.39-9.34L202.39-9.34L202.39-9.34Q201.64-9.09 200.65-9.09L200.65-9.09L199.72-9.09L199.72-2.56L199.72-2.56Q199.72-1.63 199.47-0.99L199.47-0.99L199.47-0.99Q199.23-0.36 198.73 0.07ZM288.76 8.45L288.76 8.45L277.26 8.45L277.26 8.45Q275.55 8.45 274.77 7.67L274.77 7.67L274.77 7.67Q273.99 6.89 273.99 5.18L273.99 5.18L273.99-28.97L264.26-28.97L264.26-28.97Q262.56-28.97 261.78-29.75L261.78-29.75L261.78-29.75Q261.00-30.53 261.00-32.23L261.00-32.23L261.00-40.83L261.00-40.83Q261.00-41.75 261.24-42.39L261.24-42.39L261.24-42.39Q261.49-43.03 261.99-43.45L261.99-43.45L271.15-51.19L271.15-51.19Q271.50-51.48 272.11-51.65L272.11-51.65L272.11-51.65Q272.71-51.83 273.42-51.83L273.42-51.83L310.91-51.83L310.91-51.83Q312.61-51.83 313.39-51.05L313.39-51.05L313.39-51.05Q314.18-50.27 314.18-48.56L314.18-48.56L314.18-39.97L314.18-39.97Q314.18-39.05 313.93-38.41L313.93-38.41L313.93-38.41Q313.68-37.77 313.18-37.35L313.18-37.35L303.95-29.68L303.95-29.68Q303.67-29.39 303.06-29.18L303.06-29.18L303.06-29.18Q302.46-28.97 301.75-28.97L301.75-28.97L301.18-28.97L301.18-2.56L301.18-2.56Q301.18-1.63 300.93-0.99L300.93-0.99L300.93-0.99Q300.69-0.36 300.19 0.07L300.19 0.07L290.96 7.74L290.96 7.74Q290.67 8.02 290.07 8.24L290.07 8.24L290.07 8.24Q289.47 8.45 288.76 8.45ZM286.41 0L297.92 0L297.92 0Q299.27 0 299.87-0.60L299.87-0.60L299.87-0.60Q300.47-1.21 300.47-2.56L300.47-2.56L300.47-37.42L310.91-37.42L310.91-37.42Q312.26-37.42 312.86-38.02L312.86-38.02L312.86-38.02Q313.47-38.62 313.47-39.97L313.47-39.97L313.47-48.56L313.47-48.56Q313.47-49.91 312.86-50.52L312.86-50.52L312.86-50.52Q312.26-51.12 310.91-51.12L310.91-51.12L273.42-51.12L273.42-51.12Q272.07-51.12 271.47-50.52L271.47-50.52L271.47-50.52Q270.87-49.91 270.87-48.56L270.87-48.56L270.87-39.97L270.87-39.97Q270.87-38.62 271.47-38.02L271.47-38.02L271.47-38.02Q272.07-37.42 273.42-37.42L273.42-37.42L283.86-37.42L283.86-2.56L283.86-2.56Q283.86-1.21 284.46-0.60L284.46-0.60L284.46-0.60Q285.07 0 286.41 0L286.41 0ZM292.52-6.39L291.81-6.39L291.81-44.02L277.26-44.02L277.26-44.73L307.08-44.73L307.08-44.02L292.52-44.02L292.52-6.39ZM335.83-6.39L335.12-6.39L335.12-44.73L335.83-44.73L335.83-25.92L363.09-25.92L363.09-44.73L363.80-44.73L363.80-6.39L363.09-6.39L363.09-25.21L335.83-25.21L335.83-6.39ZM330.01 0L341.01 0L341.01 0Q342.36 0 342.97-0.60L342.97-0.60L342.97-0.60Q343.57-1.21 343.57-2.56L343.57-2.56L343.57-18.32L355.43-18.32L355.43-2.56L355.43-2.56Q355.43-1.21 356.03-0.60L356.03-0.60L356.03-0.60Q356.63 0 357.98 0L357.98 0L368.99 0L368.99 0Q370.34 0 370.94-0.60L370.94-0.60L370.94-0.60Q371.54-1.21 371.54-2.56L371.54-2.56L371.54-48.56L371.54-48.56Q371.54-49.91 370.94-50.52L370.94-50.52L370.94-50.52Q370.34-51.12 368.99-51.12L368.99-51.12L357.98-51.12L357.98-51.12Q356.63-51.12 356.03-50.52L356.03-50.52L356.03-50.52Q355.43-49.91 355.43-48.56L355.43-48.56L355.43-33.16L343.57-33.16L343.57-48.56L343.57-48.56Q343.57-49.91 342.97-50.52L342.97-50.52L342.97-50.52Q342.36-51.12 341.01-51.12L341.01-51.12L330.01-51.12L330.01-51.12Q328.66-51.12 328.06-50.52L328.06-50.52L328.06-50.52Q327.45-49.91 327.45-48.56L327.45-48.56L327.45-2.56L327.45-2.56Q327.45-1.21 328.06-0.60L328.06-0.60L328.06-0.60Q328.66 0 330.01 0L330.01 0ZM343.29 0.07L343.29 0.07L334.06 7.74L334.06 7.74Q333.77 8.02 333.17 8.24L333.17 8.24L333.17 8.24Q332.56 8.45 331.85 8.45L331.85 8.45L320.85 8.45L320.85 8.45Q319.15 8.45 318.36 7.67L318.36 7.67L318.36 7.67Q317.58 6.89 317.58 5.18L317.58 5.18L317.58-40.83L317.58-40.83Q317.58-41.75 317.83-42.39L317.83-42.39L317.83-42.39Q318.08-43.03 318.58-43.45L318.58-43.45L327.74-51.19L327.74-51.19Q328.09-51.48 328.69-51.65L328.69-51.65L328.69-51.65Q329.30-51.83 330.01-51.83L330.01-51.83L341.01-51.83L341.01-51.83Q342.72-51.83 343.50-51.05L343.50-51.05L343.50-51.05Q344.28-50.27 344.28-48.56L344.28-48.56L344.28-33.87L345.56-33.87L345.56-40.83L345.56-40.83Q345.56-41.75 345.81-42.39L345.81-42.39L345.81-42.39Q346.05-43.03 346.55-43.45L346.55-43.45L355.71-51.19L355.71-51.19Q356.07-51.48 356.67-51.65L356.67-51.65L356.67-51.65Q357.27-51.83 357.98-51.83L357.98-51.83L368.99-51.83L368.99-51.83Q370.69-51.83 371.47-51.05L371.47-51.05L371.47-51.05Q372.25-50.27 372.25-48.56L372.25-48.56L372.25-2.56L372.25-2.56Q372.25-1.63 372.00-0.99L372.00-0.99L372.00-0.99Q371.76-0.36 371.26 0.07L371.26 0.07L362.03 7.74L362.03 7.74Q361.75 8.02 361.14 8.24L361.14 8.24L361.14 8.24Q360.54 8.45 359.83 8.45L359.83 8.45L348.82 8.45L348.82 8.45Q347.12 8.45 346.34 7.67L346.34 7.67L346.34 7.67Q345.56 6.89 345.56 5.18L345.56 5.18L345.56-9.87L344.28-9.87L344.28-2.56L344.28-2.56Q344.28-1.63 344.03-0.99L344.03-0.99L344.03-0.99Q343.78-0.36 343.29 0.07ZM414.78 8.45L414.78 8.45L381.84 8.45L381.84 8.45Q380.13 8.45 379.35 7.67L379.35 7.67L379.35 7.67Q378.57 6.89 378.57 5.18L378.57 5.18L378.57-40.83L378.57-40.83Q378.57-41.75 378.82-42.39L378.82-42.39L378.82-42.39Q379.07-43.03 379.57-43.45L379.57-43.45L388.73-51.19L388.73-51.19Q389.08-51.48 389.68-51.65L389.68-51.65L389.68-51.65Q390.29-51.83 391.00-51.83L391.00-51.83L423.94-51.83L423.94-51.83Q425.65-51.83 426.43-51.05L426.43-51.05L426.43-51.05Q427.21-50.27 427.21-48.56L427.21-48.56L427.21-40.26L427.21-40.26Q427.21-39.33 426.96-38.70L426.96-38.70L426.96-38.70Q426.71-38.06 426.21-37.63L426.21-37.63L420.11-32.59L420.11-32.59Q420.82-32.23 421.14-31.52L421.14-31.52L421.14-31.52Q421.46-30.81 421.46-29.68L421.46-29.68L421.46-22.08L421.46-22.08Q421.46-21.16 421.21-20.52L421.21-20.52L421.21-20.52Q420.96-19.88 420.46-19.45L420.46-19.45L414.14-14.13L423.94-14.13L423.94-14.13Q425.65-14.13 426.43-13.35L426.43-13.35L426.43-13.35Q427.21-12.57 427.21-10.86L427.21-10.86L427.21-2.56L427.21-2.56Q427.21-1.63 426.96-0.99L426.96-0.99L426.96-0.99Q426.71-0.36 426.21 0.07L426.21 0.07L416.98 7.74L416.98 7.74Q416.70 8.02 416.10 8.24L416.10 8.24L416.10 8.24Q415.49 8.45 414.78 8.45ZM391.00 0L423.94 0L423.94 0Q425.29 0 425.89-0.60L425.89-0.60L425.89-0.60Q426.50-1.21 426.50-2.56L426.50-2.56L426.50-10.86L426.50-10.86Q426.50-12.21 425.89-12.82L425.89-12.82L425.89-12.82Q425.29-13.42 423.94-13.42L423.94-13.42L404.35-13.42L404.35-19.53L418.19-19.53L418.19-19.53Q419.54-19.53 420.14-20.13L420.14-20.13L420.14-20.13Q420.75-20.73 420.75-22.08L420.75-22.08L420.75-29.68L420.75-29.68Q420.75-31.03 420.14-31.63L420.14-31.63L420.14-31.63Q419.54-32.23 418.19-32.23L418.19-32.23L404.35-32.23L404.35-37.70L423.94-37.70L423.94-37.70Q425.29-37.70 425.89-38.30L425.89-38.30L425.89-38.30Q426.50-38.91 426.50-40.26L426.50-40.26L426.50-48.56L426.50-48.56Q426.50-49.91 425.89-50.52L425.89-50.52L425.89-50.52Q425.29-51.12 423.94-51.12L423.94-51.12L391.00-51.12L391.00-51.12Q389.65-51.12 389.04-50.52L389.04-50.52L389.04-50.52Q388.44-49.91 388.44-48.56L388.44-48.56L388.44-2.56L388.44-2.56Q388.44-1.21 389.04-0.60L389.04-0.60L389.04-0.60Q389.65 0 391.00 0L391.00 0ZM396.89-7.10L420.11-7.10L420.11-6.39L396.18-6.39L396.18-44.73L420.11-44.73L420.11-44.02L396.89-44.02L396.89-26.20L414.36-26.20L414.36-25.49L396.89-25.49L396.89-7.10ZM505.24-2.98L496.01 4.69L496.01 4.69Q493.81 6.53 490.40 7.49L490.40 7.49L490.40 7.49Q486.99 8.45 482.37 8.45L482.37 8.45L458.45 8.45L458.45 8.45Q456.74 8.45 455.96 7.67L455.96 7.67L455.96 7.67Q455.18 6.89 455.18 5.18L455.18 5.18L455.18-40.83L455.18-40.83Q455.18-41.75 455.43-42.39L455.43-42.39L455.43-42.39Q455.68-43.03 456.18-43.45L456.18-43.45L465.33-51.19L465.33-51.19Q465.69-51.48 466.29-51.65L466.29-51.65L466.29-51.65Q466.90-51.83 467.61-51.83L467.61-51.83L491.53-51.83L491.53-51.83Q500.83-51.83 505.27-48.07L505.27-48.07L505.27-48.07Q509.71-44.30 509.71-36.64L509.71-36.64L509.71-14.48L509.71-14.48Q509.71-10.65 508.57-7.77L508.57-7.77L508.57-7.77Q507.44-4.90 505.24-2.98L505.24-2.98ZM467.61 0L491.53 0L491.53 0Q500.41 0 504.70-3.55L504.70-3.55L504.70-3.55Q509.00-7.10 509.00-14.48L509.00-14.48L509.00-36.64L509.00-36.64Q509.00-44.02 504.70-47.57L504.70-47.57L504.70-47.57Q500.41-51.12 491.53-51.12L491.53-51.12L467.61-51.12L467.61-51.12Q466.26-51.12 465.65-50.52L465.65-50.52L465.65-50.52Q465.05-49.91 465.05-48.56L465.05-48.56L465.05-2.56L465.05-2.56Q465.05-1.21 465.65-0.60L465.65-0.60L465.65-0.60Q466.26 0 467.61 0L467.61 0ZM489.97-6.39L472.79-6.39L472.79-44.73L489.97-44.73L489.97-44.73Q493.59-44.73 495.83-43.95L495.83-43.95L495.83-43.95Q498.07-43.17 499.27-41.85L499.27-41.85L499.27-41.85Q500.48-40.54 500.91-38.73L500.91-38.73L500.91-38.73Q501.33-36.92 501.33-34.86L501.33-34.86L501.33-16.05L501.33-16.05Q501.33-13.99 500.94-12.21L500.94-12.21L500.94-12.21Q500.55-10.44 499.34-9.16L499.34-9.16L499.34-9.16Q498.14-7.88 495.86-7.14L495.86-7.14L495.86-7.14Q493.59-6.39 489.97-6.39L489.97-6.39ZM489.97-44.02L489.97-44.02L473.50-44.02L473.50-7.10L489.97-7.10L489.97-7.10Q493.38-7.10 495.47-7.77L495.47-7.77L495.47-7.77Q497.57-8.45 498.70-9.62L498.70-9.62L498.70-9.62Q499.84-10.79 500.23-12.46L500.23-12.46L500.23-12.46Q500.62-14.13 500.62-16.05L500.62-16.05L500.62-34.86L500.62-34.86Q500.62-36.78 500.20-38.48L500.20-38.48L500.20-38.48Q499.77-40.19 498.63-41.39L498.63-41.39L498.63-41.39Q497.50-42.60 495.40-43.31L495.40-43.31L495.40-43.31Q493.31-44.02 489.97-44.02ZM481.17-13.42L481.17-37.56L489.62-37.56L489.62-37.56Q491.32-37.56 492.14-36.74L492.14-36.74L492.14-36.74Q492.95-35.93 492.95-34.15L492.95-34.15L492.95-16.90L492.95-16.90Q492.95-15.12 492.14-14.27L492.14-14.27L492.14-14.27Q491.32-13.42 489.62-13.42L489.62-13.42L481.17-13.42ZM483.08-14.13L483.08-26.41L483.08-26.41Q483.08-27.34 482.80-27.97L482.80-27.97L482.80-27.97Q482.52-28.61 481.88-28.90L481.88-28.90L481.88-14.13L483.08-14.13ZM551.46 8.45L551.46 8.45L518.51 8.45L518.51 8.45Q516.81 8.45 516.03 7.67L516.03 7.67L516.03 7.67Q515.25 6.89 515.25 5.18L515.25 5.18L515.25-40.83L515.25-40.83Q515.25-41.75 515.50-42.39L515.50-42.39L515.50-42.39Q515.74-43.03 516.24-43.45L516.24-43.45L525.40-51.19L525.40-51.19Q525.75-51.48 526.36-51.65L526.36-51.65L526.36-51.65Q526.96-51.83 527.67-51.83L527.67-51.83L560.62-51.83L560.62-51.83Q562.32-51.83 563.10-51.05L563.10-51.05L563.10-51.05Q563.88-50.27 563.88-48.56L563.88-48.56L563.88-40.26L563.88-40.26Q563.88-39.33 563.63-38.70L563.63-38.70L563.63-38.70Q563.38-38.06 562.89-37.63L562.89-37.63L556.78-32.59L556.78-32.59Q557.49-32.23 557.81-31.52L557.81-31.52L557.81-31.52Q558.13-30.81 558.13-29.68L558.13-29.68L558.13-22.08L558.13-22.08Q558.13-21.16 557.88-20.52L557.88-20.52L557.88-20.52Q557.63-19.88 557.14-19.45L557.14-19.45L550.82-14.13L560.62-14.13L560.62-14.13Q562.32-14.13 563.10-13.35L563.10-13.35L563.10-13.35Q563.88-12.57 563.88-10.86L563.88-10.86L563.88-2.56L563.88-2.56Q563.88-1.63 563.63-0.99L563.63-0.99L563.63-0.99Q563.38-0.36 562.89 0.07L562.89 0.07L553.66 7.74L553.66 7.74Q553.37 8.02 552.77 8.24L552.77 8.24L552.77 8.24Q552.17 8.45 551.46 8.45ZM527.67 0L560.62 0L560.62 0Q561.97 0 562.57-0.60L562.57-0.60L562.57-0.60Q563.17-1.21 563.17-2.56L563.17-2.56L563.17-10.86L563.17-10.86Q563.17-12.21 562.57-12.82L562.57-12.82L562.57-12.82Q561.97-13.42 560.62-13.42L560.62-13.42L541.02-13.42L541.02-19.53L554.87-19.53L554.87-19.53Q556.21-19.53 556.82-20.13L556.82-20.13L556.82-20.13Q557.42-20.73 557.42-22.08L557.42-22.08L557.42-29.68L557.42-29.68Q557.42-31.03 556.82-31.63L556.82-31.63L556.82-31.63Q556.21-32.23 554.87-32.23L554.87-32.23L541.02-32.23L541.02-37.70L560.62-37.70L560.62-37.70Q561.97-37.70 562.57-38.30L562.57-38.30L562.57-38.30Q563.17-38.91 563.17-40.26L563.17-40.26L563.17-48.56L563.17-48.56Q563.17-49.91 562.57-50.52L562.57-50.52L562.57-50.52Q561.97-51.12 560.62-51.12L560.62-51.12L527.67-51.12L527.67-51.12Q526.32-51.12 525.72-50.52L525.72-50.52L525.72-50.52Q525.12-49.91 525.12-48.56L525.12-48.56L525.12-2.56L525.12-2.56Q525.12-1.21 525.72-0.60L525.72-0.60L525.72-0.60Q526.32 0 527.67 0L527.67 0ZM533.57-7.10L556.78-7.10L556.78-6.39L532.86-6.39L532.86-44.73L556.78-44.73L556.78-44.02L533.57-44.02L533.57-26.20L551.03-26.20L551.03-25.49L533.57-25.49L533.57-7.10ZM599.74 8.45L581.28 8.45L581.28 8.45Q579.64 8.45 578.65 7.85L578.65 7.85L578.65 7.85Q577.66 7.24 577.02 5.68L577.02 5.68L570.06-11.72L570.06-11.72Q569.42-13.35 568.96-14.52L568.96-14.52L568.96-14.52Q568.50-15.69 568.21-16.79L568.21-16.79L568.21-16.79Q567.93-17.89 567.82-19.13L567.82-19.13L567.82-19.13Q567.72-20.38 567.72-22.08L567.72-22.08L567.72-40.83L567.72-40.83Q567.72-41.75 567.96-42.39L567.96-42.39L567.96-42.39Q568.21-43.03 568.71-43.45L568.71-43.45L577.87-51.19L577.87-51.19Q578.22-51.48 578.83-51.65L578.83-51.65L578.83-51.65Q579.43-51.83 580.14-51.83L580.14-51.83L591.43-51.83L591.43-51.83Q593.13-51.83 594.02-51.01L594.02-51.01L594.02-51.01Q594.91-50.20 594.91-48.56L594.91-48.56L594.91-28.97L594.91-28.97Q594.91-28.26 595.05-27.62L595.05-27.62L595.05-27.62Q595.19-26.98 595.41-26.27L595.41-26.27L595.62-25.77L595.62-40.83L595.62-40.83Q595.62-41.75 595.87-42.39L595.87-42.39L595.87-42.39Q596.12-43.03 596.61-43.45L596.61-43.45L605.77-51.19L605.77-51.19Q606.13-51.48 606.73-51.65L606.73-51.65L606.73-51.65Q607.33-51.83 608.04-51.83L608.04-51.83L619.19-51.83L619.19-51.83Q620.97-51.83 621.71-51.05L621.71-51.05L621.71-51.05Q622.46-50.27 622.46-48.56L622.46-48.56L622.46-29.82L622.46-29.82Q622.46-28.12 622.35-26.87L622.35-26.87L622.35-26.87Q622.24-25.63 621.96-24.53L621.96-24.53L621.96-24.53Q621.68-23.43 621.21-22.26L621.21-22.26L621.21-22.26Q620.75-21.09 620.11-19.45L620.11-19.45L613.16-2.06L613.16-2.06Q612.94-1.42 612.59-0.92L612.59-0.92L612.59-0.92Q612.23-0.43 611.88-0.14L611.88-0.14L602.72 7.46L602.72 7.46Q602.15 7.95 601.41 8.20L601.41 8.20L601.41 8.20Q600.66 8.45 599.74 8.45L599.74 8.45ZM590.44 0L608.90 0L608.90 0Q610.25 0 611.13-0.50L611.13-0.50L611.13-0.50Q612.02-0.99 612.52-2.34L612.52-2.34L619.48-19.74L619.48-19.74Q620.11-21.30 620.54-22.47L620.54-22.47L620.54-22.47Q620.97-23.64 621.25-24.71L621.25-24.71L621.25-24.71Q621.53-25.77 621.64-26.94L621.64-26.94L621.64-26.94Q621.75-28.12 621.75-29.82L621.75-29.82L621.75-48.56L621.75-48.56Q621.75-49.91 621.14-50.52L621.14-50.52L621.14-50.52Q620.54-51.12 619.19-51.12L619.19-51.12L608.04-51.12L608.04-51.12Q606.70-51.12 606.09-50.52L606.09-50.52L606.09-50.52Q605.49-49.91 605.49-48.56L605.49-48.56L605.49-29.04L605.49-29.04Q605.49-28.33 605.35-27.62L605.35-27.62L605.35-27.62Q605.20-26.91 604.92-26.13L604.92-26.13L601.58-16.12L601.58-16.12Q601.37-15.41 601.09-15.16L601.09-15.16L601.09-15.16Q600.80-14.91 600.23-14.91L600.23-14.91L599.45-14.91L599.45-14.91Q598.88-14.91 598.60-15.16L598.60-15.16L598.60-15.16Q598.32-15.41 598.10-16.12L598.10-16.12L594.77-26.06L594.77-26.06Q594.48-26.84 594.34-27.55L594.34-27.55L594.34-27.55Q594.20-28.26 594.20-28.97L594.20-28.97L594.20-48.56L594.20-48.56Q594.20-49.91 593.49-50.52L593.49-50.52L593.49-50.52Q592.78-51.12 591.43-51.12L591.43-51.12L580.14-51.12L580.14-51.12Q578.79-51.12 578.19-50.52L578.19-50.52L578.19-50.52Q577.59-49.91 577.59-48.56L577.59-48.56L577.59-29.82L577.59-29.82Q577.59-28.12 577.69-26.94L577.69-26.94L577.69-26.94Q577.80-25.77 578.08-24.71L578.08-24.71L578.08-24.71Q578.37-23.64 578.79-22.47L578.79-22.47L578.79-22.47Q579.22-21.30 579.86-19.74L579.86-19.74L586.82-2.34L586.82-2.34Q587.31-0.99 588.20-0.50L588.20-0.50L588.20-0.50Q589.09 0 590.44 0L590.44 0ZM585.61-29.39L585.61-44.73L586.32-44.73L586.32-29.39L586.32-29.39Q586.32-27.55 586.60-25.88L586.60-25.88L586.60-25.88Q586.89-24.21 587.45-22.79L587.45-22.79L592.14-11.43L592.14-11.43Q592.85-9.59 593.74-8.34L593.74-8.34L593.74-8.34Q594.63-7.10 596.61-7.10L596.61-7.10L602.86-7.10L602.86-7.10Q604.85-7.10 605.74-8.34L605.74-8.34L605.74-8.34Q606.62-9.59 607.33-11.43L607.33-11.43L612.02-22.79L612.02-22.79Q612.59-24.21 612.87-25.88L612.87-25.88L612.87-25.88Q613.16-27.55 613.16-29.39L613.16-29.39L613.16-44.73L613.87-44.73L613.87-29.39L613.87-29.39Q613.87-27.41 613.62-25.74L613.62-25.74L613.62-25.74Q613.37-24.07 612.73-22.51L612.73-22.51L608.04-11.15L608.04-11.15Q607.19-9.09 606.13-7.74L606.13-7.74L606.13-7.74Q605.06-6.39 602.86-6.39L602.86-6.39L596.61-6.39L596.61-6.39Q594.41-6.39 593.35-7.74L593.35-7.74L593.35-7.74Q592.28-9.09 591.43-11.15L591.43-11.15L586.74-22.51L586.74-22.51Q586.11-24.07 585.86-25.74L585.86-25.74L585.86-25.74Q585.61-27.41 585.61-29.39L585.61-29.39ZM663.92 8.45L663.92 8.45L630.98 8.45L630.98 8.45Q629.27 8.45 628.49 7.67L628.49 7.67L628.49 7.67Q627.71 6.89 627.71 5.18L627.71 5.18L627.71-40.83L627.71-40.83Q627.71-41.75 627.96-42.39L627.96-42.39L627.96-42.39Q628.21-43.03 628.71-43.45L628.71-43.45L637.86-51.19L637.86-51.19Q638.22-51.48 638.82-51.65L638.82-51.65L638.82-51.65Q639.43-51.83 640.14-51.83L640.14-51.83L673.08-51.83L673.08-51.83Q674.78-51.83 675.57-51.05L675.57-51.05L675.57-51.05Q676.35-50.27 676.35-48.56L676.35-48.56L676.35-40.26L676.35-40.26Q676.35-39.33 676.10-38.70L676.10-38.70L676.10-38.70Q675.85-38.06 675.35-37.63L675.35-37.63L669.25-32.59L669.25-32.59Q669.96-32.23 670.28-31.52L670.28-31.52L670.28-31.52Q670.60-30.81 670.60-29.68L670.60-29.68L670.60-22.08L670.60-22.08Q670.60-21.16 670.35-20.52L670.35-20.52L670.35-20.52Q670.10-19.88 669.60-19.45L669.60-19.45L663.28-14.13L673.08-14.13L673.08-14.13Q674.78-14.13 675.57-13.35L675.57-13.35L675.57-13.35Q676.35-12.57 676.35-10.86L676.35-10.86L676.35-2.56L676.35-2.56Q676.35-1.63 676.10-0.99L676.10-0.99L676.10-0.99Q675.85-0.36 675.35 0.07L675.35 0.07L666.12 7.74L666.12 7.74Q665.84 8.02 665.23 8.24L665.23 8.24L665.23 8.24Q664.63 8.45 663.92 8.45ZM640.14 0L673.08 0L673.08 0Q674.43 0 675.03-0.60L675.03-0.60L675.03-0.60Q675.64-1.21 675.64-2.56L675.64-2.56L675.64-10.86L675.64-10.86Q675.64-12.21 675.03-12.82L675.03-12.82L675.03-12.82Q674.43-13.42 673.08-13.42L673.08-13.42L653.48-13.42L653.48-19.53L667.33-19.53L667.33-19.53Q668.68-19.53 669.28-20.13L669.28-20.13L669.28-20.13Q669.89-20.73 669.89-22.08L669.89-22.08L669.89-29.68L669.89-29.68Q669.89-31.03 669.28-31.63L669.28-31.63L669.28-31.63Q668.68-32.23 667.33-32.23L667.33-32.23L653.48-32.23L653.48-37.70L673.08-37.70L673.08-37.70Q674.43-37.70 675.03-38.30L675.03-38.30L675.03-38.30Q675.64-38.91 675.64-40.26L675.64-40.26L675.64-48.56L675.64-48.56Q675.64-49.91 675.03-50.52L675.03-50.52L675.03-50.52Q674.43-51.12 673.08-51.12L673.08-51.12L640.14-51.12L640.14-51.12Q638.79-51.12 638.18-50.52L638.18-50.52L638.18-50.52Q637.58-49.91 637.58-48.56L637.58-48.56L637.58-2.56L637.58-2.56Q637.58-1.21 638.18-0.60L638.18-0.60L638.18-0.60Q638.79 0 640.14 0L640.14 0ZM646.03-7.10L669.25-7.10L669.25-6.39L645.32-6.39L645.32-44.73L669.25-44.73L669.25-44.02L646.03-44.02L646.03-26.20L663.50-26.20L663.50-25.49L646.03-25.49L646.03-7.10ZM720.65 8.45L720.65 8.45L684.51 8.45L684.51 8.45Q682.81 8.45 682.03 7.67L682.03 7.67L682.03 7.67Q681.25 6.89 681.25 5.18L681.25 5.18L681.25-40.83L681.25-40.83Q681.25-41.75 681.49-42.39L681.49-42.39L681.49-42.39Q681.74-43.03 682.24-43.45L682.24-43.45L691.40-51.19L691.40-51.19Q691.75-51.48 692.36-51.65L692.36-51.65L692.36-51.65Q692.96-51.83 693.67-51.83L693.67-51.83L704.68-51.83L704.68-51.83Q706.38-51.83 707.16-51.05L707.16-51.05L707.16-51.05Q707.94-50.27 707.94-48.56L707.94-48.56L707.94-19.67L708.08-19.81L717.24-27.55L717.24-27.55Q717.60-27.83 718.20-28.01L718.20-28.01L718.20-28.01Q718.80-28.19 719.51-28.19L719.51-28.19L729.81-28.19L729.81-28.19Q731.51-28.19 732.29-27.41L732.29-27.41L732.29-27.41Q733.08-26.63 733.08-24.92L733.08-24.92L733.08-2.56L733.08-2.56Q733.08-1.63 732.83-0.99L732.83-0.99L732.83-0.99Q732.58-0.36 732.08 0.07L732.08 0.07L722.85 7.74L722.85 7.74Q722.57 8.02 721.96 8.24L721.96 8.24L721.96 8.24Q721.36 8.45 720.65 8.45ZM693.67 0L729.81 0L729.81 0Q731.16 0 731.76-0.60L731.76-0.60L731.76-0.60Q732.37-1.21 732.37-2.56L732.37-2.56L732.37-24.92L732.37-24.92Q732.37-26.27 731.76-26.87L731.76-26.87L731.76-26.87Q731.16-27.48 729.81-27.48L729.81-27.48L719.51-27.48L719.51-27.48Q718.17-27.48 717.56-26.87L717.56-26.87L717.56-26.87Q716.96-26.27 716.96-24.92L716.96-24.92L716.96-13.42L707.23-13.42L707.23-48.56L707.23-48.56Q707.23-49.91 706.63-50.52L706.63-50.52L706.63-50.52Q706.02-51.12 704.68-51.12L704.68-51.12L693.67-51.12L693.67-51.12Q692.32-51.12 691.72-50.52L691.72-50.52L691.72-50.52Q691.11-49.91 691.11-48.56L691.11-48.56L691.11-2.56L691.11-2.56Q691.11-1.21 691.72-0.60L691.72-0.60L691.72-0.60Q692.32 0 693.67 0L693.67 0ZM724.98-6.39L698.85-6.39L698.85-44.73L699.56-44.73L699.56-7.10L724.27-7.10L724.27-21.09L724.98-21.09L724.98-6.39ZM787.32-2.63L778.16 5.04L778.16 5.04Q775.68 7.17 771.20 8.34L771.20 8.34L771.20 8.34Q766.73 9.51 759.70 9.51L759.70 9.51L759.70 9.51Q752.74 9.51 748.30 8.06L748.30 8.06L748.30 8.06Q743.87 6.60 741.35 4.19L741.35 4.19L741.35 4.19Q738.83 1.78 737.87-1.35L737.87-1.35L737.87-1.35Q736.91-4.47 736.91-7.81L736.91-7.81L736.91-29.89L736.91-29.89Q736.91-33.16 737.83-35.96L737.83-35.96L737.83-35.96Q738.76-38.77 741.17-40.75L741.17-40.75L750.40-48.42L750.40-48.42Q752.88-50.55 757.32-51.72L757.32-51.72L757.32-51.72Q761.76-52.90 768.86-52.90L768.86-52.90L768.86-52.90Q775.82-52.90 780.25-51.76L780.25-51.76L780.25-51.76Q784.69-50.62 787.21-48.60L787.21-48.60L787.21-48.60Q789.73-46.58 790.66-43.77L790.66-43.77L790.66-43.77Q791.58-40.97 791.58-37.63L791.58-37.63L791.58-13.42L791.58-13.42Q791.58-10.15 790.66-7.38L790.66-7.38L790.66-7.38Q789.73-4.62 787.32-2.63L787.32-2.63ZM790.87-13.42L790.87-13.42L790.87-37.63L790.87-37.63Q790.87-40.90 789.91-43.56L789.91-43.56L789.91-43.56Q788.95-46.22 786.50-48.14L786.50-48.14L786.50-48.14Q784.05-50.06 779.76-51.12L779.76-51.12L779.76-51.12Q775.46-52.19 768.86-52.19L768.86-52.19L768.86-52.19Q762.26-52.19 757.93-51.12L757.93-51.12L757.93-51.12Q753.59-50.06 751.14-48.14L751.14-48.14L751.14-48.14Q748.70-46.22 747.74-43.56L747.74-43.56L747.74-43.56Q746.78-40.90 746.78-37.63L746.78-37.63L746.78-13.42L746.78-13.42Q746.78-10.15 747.74-7.49L747.74-7.49L747.74-7.49Q748.70-4.83 751.14-2.95L751.14-2.95L751.14-2.95Q753.59-1.07 757.93 0L757.93 0L757.93 0Q762.26 1.07 768.86 1.07L768.86 1.07L768.86 1.07Q775.46 1.07 779.76 0L779.76 0L779.76 0Q784.05-1.07 786.50-2.95L786.50-2.95L786.50-2.95Q788.95-4.83 789.91-7.49L789.91-7.49L789.91-7.49Q790.87-10.15 790.87-13.42ZM783.13-36.00L783.13-15.05L783.13-15.05Q783.13-10.79 780.08-8.13L780.08-8.13L780.08-8.13Q777.02-5.47 768.72-5.47L768.72-5.47L768.72-5.47Q760.41-5.47 757.43-8.13L757.43-8.13L757.43-8.13Q754.45-10.79 754.45-15.05L754.45-15.05L754.45-36.00L754.45-36.00Q754.45-40.26 757.43-42.92L757.43-42.92L757.43-42.92Q760.41-45.58 768.72-45.58L768.72-45.58L768.72-45.58Q777.02-45.58 780.08-42.92L780.08-42.92L780.08-42.92Q783.13-40.26 783.13-36.00L783.13-36.00ZM755.16-36.00L755.16-15.05L755.16-15.05Q755.16-11.08 758.00-8.63L758.00-8.63L758.00-8.63Q760.84-6.18 768.72-6.18L768.72-6.18L768.72-6.18Q776.60-6.18 779.51-8.63L779.51-8.63L779.51-8.63Q782.42-11.08 782.42-15.05L782.42-15.05L782.42-36.00L782.42-36.00Q782.42-39.97 779.51-42.42L779.51-42.42L779.51-42.42Q776.60-44.87 768.72-44.87L768.72-44.87L768.72-44.87Q760.84-44.87 758.00-42.42L758.00-42.42L758.00-42.42Q755.16-39.97 755.16-36.00L755.16-36.00ZM762.90-15.98L762.90-15.98L762.90-35.07L762.90-35.07Q762.90-36.42 763.96-37.38L763.96-37.38L763.96-37.38Q765.03-38.34 768.86-38.34L768.86-38.34L768.86-38.34Q772.69-38.34 773.76-37.38L773.76-37.38L773.76-37.38Q774.82-36.42 774.82-35.07L774.82-35.07L774.82-15.98L774.82-15.98Q774.82-14.56 773.76-13.60L773.76-13.60L773.76-13.60Q772.69-12.64 768.86-12.64L768.86-12.64L768.86-12.64Q765.03-12.64 763.96-13.60L763.96-13.60L763.96-13.60Q762.90-14.56 762.90-15.98ZM763.61-29.39L763.61-15.98L763.61-15.98Q763.61-15.27 763.89-14.73L763.89-14.73L763.89-14.73Q764.17-14.20 764.95-13.85L764.95-13.85L764.95-27.34L764.95-27.34Q764.95-28.05 764.67-28.58L764.67-28.58L764.67-28.58Q764.39-29.11 763.61-29.39L763.61-29.39ZM811.39 8.45L811.39 8.45L800.38 8.45L800.38 8.45Q798.68 8.45 797.90 7.67L797.90 7.67L797.90 7.67Q797.12 6.89 797.12 5.18L797.12 5.18L797.12-40.83L797.12-40.83Q797.12-41.75 797.37-42.39L797.37-42.39L797.37-42.39Q797.61-43.03 798.11-43.45L798.11-43.45L807.27-51.19L807.27-51.19Q807.63-51.48 808.23-51.65L808.23-51.65L808.23-51.65Q808.83-51.83 809.54-51.83L809.54-51.83L831.27-51.83L831.27-51.83Q836.31-51.83 839.72-50.77L839.72-50.77L839.72-50.77Q843.13-49.70 845.11-47.78L845.11-47.78L845.11-47.78Q847.10-45.87 847.92-43.17L847.92-43.17L847.92-43.17Q848.73-40.47 848.73-37.28L848.73-37.28L848.73-28.19L848.73-28.19Q848.73-24.78 847.78-21.97L847.78-21.97L847.78-21.97Q846.82-19.17 844.47-17.18L844.47-17.18L835.24-9.51L835.24-9.51Q833.47-8.02 830.66-7.06L830.66-7.06L830.66-7.06Q827.86-6.11 823.81-5.96L823.81-5.96L823.81-2.56L823.81-2.56Q823.81-1.63 823.56-0.99L823.56-0.99L823.56-0.99Q823.32-0.36 822.82 0.07L822.82 0.07L813.59 7.74L813.59 7.74Q813.31 8.02 812.70 8.24L812.70 8.24L812.70 8.24Q812.10 8.45 811.39 8.45ZM809.54 0L820.55 0L820.55 0Q821.90 0 822.50-0.60L822.50-0.60L822.50-0.60Q823.10-1.21 823.10-2.56L823.10-2.56L823.10-14.34L831.27-14.34L831.27-14.34Q840.92-14.34 844.47-18.18L844.47-18.18L844.47-18.18Q848.02-22.01 848.02-28.19L848.02-28.19L848.02-37.28L848.02-37.28Q848.02-43.45 844.47-47.29L844.47-47.29L844.47-47.29Q840.92-51.12 831.27-51.12L831.27-51.12L809.54-51.12L809.54-51.12Q808.19-51.12 807.59-50.52L807.59-50.52L807.59-50.52Q806.99-49.91 806.99-48.56L806.99-48.56L806.99-2.56L806.99-2.56Q806.99-1.21 807.59-0.60L807.59-0.60L807.59-0.60Q808.19 0 809.54 0L809.54 0ZM830.27-20.38L830.27-20.38L815.65-20.38L815.65-6.39L814.94-6.39L814.94-44.73L830.27-44.73L830.27-44.73Q833.61-44.73 835.71-43.98L835.71-43.98L835.71-43.98Q837.80-43.24 838.94-41.96L838.94-41.96L838.94-41.96Q840.07-40.68 840.50-38.91L840.50-38.91L840.50-38.91Q840.92-37.13 840.92-35.07L840.92-35.07L840.92-29.82L840.92-29.82Q840.92-27.76 840.50-26.02L840.50-26.02L840.50-26.02Q840.07-24.28 838.94-23.04L838.94-23.04L838.94-23.04Q837.80-21.80 835.71-21.09L835.71-21.09L835.71-21.09Q833.61-20.38 830.27-20.38ZM815.65-44.02L815.65-21.09L830.27-21.09L830.27-21.09Q833.40-21.09 835.35-21.73L835.35-21.73L835.35-21.73Q837.30-22.37 838.37-23.54L838.37-23.54L838.37-23.54Q839.43-24.71 839.82-26.31L839.82-26.31L839.82-26.31Q840.21-27.90 840.21-29.82L840.21-29.82L840.21-35.07L840.21-35.07Q840.21-36.99 839.82-38.62L839.82-38.62L839.82-38.62Q839.43-40.26 838.37-41.46L838.37-41.46L838.37-41.46Q837.30-42.67 835.35-43.35L835.35-43.35L835.35-43.35Q833.40-44.02 830.27-44.02L830.27-44.02L815.65-44.02ZM822.96-27.12L822.96-37.84L829.35-37.84L829.35-37.84Q831.41-37.84 832.05-36.78L832.05-36.78L832.05-36.78Q832.69-35.71 832.69-34.36L832.69-34.36L832.69-30.60L832.69-30.60Q832.69-29.25 832.05-28.19L832.05-28.19L832.05-28.19Q831.41-27.12 829.35-27.12L829.35-27.12L822.96-27.12ZM888.85 8.45L888.85 8.45L855.91 8.45L855.91 8.45Q854.20 8.45 853.42 7.67L853.42 7.67L853.42 7.67Q852.64 6.89 852.64 5.18L852.64 5.18L852.64-40.83L852.64-40.83Q852.64-41.75 852.89-42.39L852.89-42.39L852.89-42.39Q853.14-43.03 853.63-43.45L853.63-43.45L862.79-51.19L862.79-51.19Q863.15-51.48 863.75-51.65L863.75-51.65L863.75-51.65Q864.35-51.83 865.06-51.83L865.06-51.83L898.01-51.83L898.01-51.83Q899.71-51.83 900.49-51.05L900.49-51.05L900.49-51.05Q901.27-50.27 901.27-48.56L901.27-48.56L901.27-40.26L901.27-40.26Q901.27-39.33 901.03-38.70L901.03-38.70L901.03-38.70Q900.78-38.06 900.28-37.63L900.28-37.63L894.17-32.59L894.17-32.59Q894.88-32.23 895.20-31.52L895.20-31.52L895.20-31.52Q895.52-30.81 895.52-29.68L895.52-29.68L895.52-22.08L895.52-22.08Q895.52-21.16 895.27-20.52L895.27-20.52L895.27-20.52Q895.03-19.88 894.53-19.45L894.53-19.45L888.21-14.13L898.01-14.13L898.01-14.13Q899.71-14.13 900.49-13.35L900.49-13.35L900.49-13.35Q901.27-12.57 901.27-10.86L901.27-10.86L901.27-2.56L901.27-2.56Q901.27-1.63 901.03-0.99L901.03-0.99L901.03-0.99Q900.78-0.36 900.28 0.07L900.28 0.07L891.05 7.74L891.05 7.74Q890.77 8.02 890.16 8.24L890.16 8.24L890.16 8.24Q889.56 8.45 888.85 8.45ZM865.06 0L898.01 0L898.01 0Q899.36 0 899.96-0.60L899.96-0.60L899.96-0.60Q900.56-1.21 900.56-2.56L900.56-2.56L900.56-10.86L900.56-10.86Q900.56-12.21 899.96-12.82L899.96-12.82L899.96-12.82Q899.36-13.42 898.01-13.42L898.01-13.42L878.41-13.42L878.41-19.53L892.26-19.53L892.26-19.53Q893.61-19.53 894.21-20.13L894.21-20.13L894.21-20.13Q894.81-20.73 894.81-22.08L894.81-22.08L894.81-29.68L894.81-29.68Q894.81-31.03 894.21-31.63L894.21-31.63L894.21-31.63Q893.61-32.23 892.26-32.23L892.26-32.23L878.41-32.23L878.41-37.70L898.01-37.70L898.01-37.70Q899.36-37.70 899.96-38.30L899.96-38.30L899.96-38.30Q900.56-38.91 900.56-40.26L900.56-40.26L900.56-48.56L900.56-48.56Q900.56-49.91 899.96-50.52L899.96-50.52L899.96-50.52Q899.36-51.12 898.01-51.12L898.01-51.12L865.06-51.12L865.06-51.12Q863.72-51.12 863.11-50.52L863.11-50.52L863.11-50.52Q862.51-49.91 862.51-48.56L862.51-48.56L862.51-2.56L862.51-2.56Q862.51-1.21 863.11-0.60L863.11-0.60L863.11-0.60Q863.72 0 865.06 0L865.06 0ZM870.96-7.10L894.17-7.10L894.17-6.39L870.25-6.39L870.25-44.73L894.17-44.73L894.17-44.02L870.96-44.02L870.96-26.20L888.42-26.20L888.42-25.49L870.96-25.49L870.96-7.10ZM939.90-44.02L939.90-44.02L924.42-44.02L924.42-23.50L939.90-23.50L939.90-23.50Q944.30-23.50 945.79-25.63L945.79-25.63L945.79-25.63Q947.28-27.76 947.28-31.67L947.28-31.67L947.28-36.64L947.28-36.64Q947.28-39.90 945.47-41.96L945.47-41.96L945.47-41.96Q943.66-44.02 939.90-44.02ZM932.09-29.25L932.09-38.34L937.41-38.34L937.41-38.34Q939.26-38.34 939.90-37.38L939.90-37.38L939.90-37.38Q940.54-36.42 940.54-35.00L940.54-35.00L940.54-32.59L940.54-32.59Q940.54-31.17 939.90-30.21L939.90-30.21L939.90-30.21Q939.26-29.25 937.41-29.25L937.41-29.25L932.09-29.25ZM924.42-22.86L924.42-6.39L923.71-6.39L923.71-44.73L939.90-44.73L939.90-44.73Q944.02-44.73 946.00-42.42L946.00-42.42L946.00-42.42Q947.99-40.12 947.99-36.64L947.99-36.64L947.99-31.74L947.99-31.74Q947.99-28.47 947.14-26.38L947.14-26.38L947.14-26.38Q946.29-24.28 943.73-23.50L943.73-23.50L944.51-23.50L944.51-23.50Q948.84-23.50 950.97-21.55L950.97-21.55L950.97-21.55Q953.10-19.60 953.10-15.90L953.10-15.90L953.10-6.39L952.39-6.39L952.39-15.90L952.39-15.90Q952.39-19.38 950.48-21.12L950.48-21.12L950.48-21.12Q948.56-22.86 944.51-22.86L944.51-22.86L924.42-22.86ZM918.60 0L929.53 0L929.53 0Q930.88 0 931.48-0.60L931.48-0.60L931.48-0.60Q932.09-1.21 932.09-2.56L932.09-2.56L932.09-16.47L942.03-16.47L942.03-16.47Q943.52-16.47 944.12-15.73L944.12-15.73L944.12-15.73Q944.73-14.98 944.73-13.42L944.73-13.42L944.73-2.56L944.73-2.56Q944.73-1.21 945.33-0.60L945.33-0.60L945.33-0.60Q945.93 0 947.28 0L947.28 0L958.29 0L958.29 0Q959.64 0 960.24-0.60L960.24-0.60L960.24-0.60Q960.84-1.21 960.84-2.56L960.84-2.56L960.84-17.61L960.84-17.61Q960.84-22.08 958.46-24.78L958.46-24.78L958.46-24.78Q956.09-27.48 952.25-27.90L952.25-27.90L952.25-27.90Q954.45-28.83 955.34-30.92L955.34-30.92L955.34-30.92Q956.23-33.02 956.23-36.00L956.23-36.00L956.23-39.26L956.23-39.26Q956.23-44.52 953.21-47.82L953.21-47.82L953.21-47.82Q950.19-51.12 942.24-51.12L942.24-51.12L918.60-51.12L918.60-51.12Q917.25-51.12 916.65-50.52L916.65-50.52L916.65-50.52Q916.04-49.91 916.04-48.56L916.04-48.56L916.04-2.56L916.04-2.56Q916.04-1.21 916.65-0.60L916.65-0.60L916.65-0.60Q917.25 0 918.60 0L918.60 0ZM931.80 0.07L931.80 0.07L922.57 7.74L922.57 7.74Q922.29 8.02 921.69 8.24L921.69 8.24L921.69 8.24Q921.08 8.45 920.37 8.45L920.37 8.45L909.44 8.45L909.44 8.45Q907.74 8.45 906.95 7.67L906.95 7.67L906.95 7.67Q906.17 6.89 906.17 5.18L906.17 5.18L906.17-40.83L906.17-40.83Q906.17-41.75 906.42-42.39L906.42-42.39L906.42-42.39Q906.67-43.03 907.17-43.45L907.17-43.45L916.33-51.19L916.33-51.19Q916.68-51.48 917.28-51.65L917.28-51.65L917.28-51.65Q917.89-51.83 918.60-51.83L918.60-51.83L942.24-51.83L942.24-51.83Q950.69-51.83 953.81-48.32L953.81-48.32L953.81-48.32Q956.94-44.80 956.94-39.26L956.94-39.26L956.94-36.00L956.94-36.00Q956.94-33.37 956.30-31.42L956.30-31.42L956.30-31.42Q955.66-29.47 954.24-28.26L954.24-28.26L954.17-28.26L954.17-28.26Q957.51-27.34 959.53-24.57L959.53-24.57L959.53-24.57Q961.55-21.80 961.55-17.61L961.55-17.61L961.55-2.56L961.55-2.56Q961.55-1.63 961.30-0.99L961.30-0.99L961.30-0.99Q961.06-0.36 960.56 0.07L960.56 0.07L951.33 7.74L951.33 7.74Q951.05 8.02 950.44 8.24L950.44 8.24L950.44 8.24Q949.84 8.45 949.13 8.45L949.13 8.45L938.12 8.45L938.12 8.45Q936.42 8.45 935.64 7.67L935.64 7.67L935.64 7.67Q934.86 6.89 934.86 5.18L934.86 5.18L934.86-5.68L934.86-5.68Q934.86-6.82 934.43-7.42L934.43-7.42L934.43-7.42Q934.01-8.02 932.87-8.02L932.87-8.02L932.80-8.02L932.80-2.56L932.80-2.56Q932.80-1.63 932.55-0.99L932.55-0.99L932.55-0.99Q932.30-0.36 931.80 0.07Z" fill="url(#editing-sticker-gradient)" stroke="#030303" stroke-width="3"></path></g></g><style>text {
  font-size: 64px;
  font-family: Arial Black;
  dominant-baseline: central;
  text-anchor: middle;
}</style></svg>